<?xml version="1.0" encoding="iso-8859-1"?>
<!-- Generator: Adobe Illustrator 16.0.0, SVG Export Plug-In . SVG Version: 6.00 Build 0)  -->
<!DOCTYPE svg PUBLIC "-//W3C//DTD SVG 1.1//EN" "http://www.w3.org/Graphics/SVG/1.1/DTD/svg11.dtd">
<svg version="1.1" id="Legend_Layer_1" xmlns="http://www.w3.org/2000/svg" xmlns:xlink="http://www.w3.org/1999/xlink" x="0px" y="0px"
	 width="220px" height="220px" viewBox="0 0 220 220" style="enable-background:new 0 0 220 220;width:100%;height:100%;"  preserveAspectRatio="xMinYMid meet">
<path style="fill:#FFFFFF;" d="M210,180c0,2.762-2.238,5-5,5H15c-2.761,0-5-2.238-5-5V40c0-2.761,2.239-5,5-5h190
	c2.762,0,5,2.239,5,5V180z"/>
<text transform="matrix(1 0 0 1 54.6636 57.0947)"><tspan x="0" y="0" id="legend-highlight-text" style="fill:#231F20; font-family:'Helvetica'; font-size:13;">Conscious people </tspan><tspan x="0" y="15.6" style="fill:#231F20; font-family:'Helvetica'; font-size:13;">at the time of the event</tspan></text>
<rect x="26.832" y="50.734" style="fill:#FFF100;" width="22" height="22"/>
<text transform="matrix(1 0 0 1 54.6641 109.7349)" style="fill:#231F20; font-family:'Helvetica'; font-size:13;">Rest of the population</text>
<rect x="26.832" y="87.734" style="fill:#007594;" width="22" height="22"/>
<linearGradient id="SVGID_1_" gradientUnits="userSpaceOnUse" x1="26.832" y1="135.7344" x2="48.832" y2="135.7344">
	<stop  offset="0" style="stop-color:#85144B"/>
	<stop  offset="0.0466" style="stop-color:#8D1C48"/>
	<stop  offset="0.351" style="stop-color:#BE4935"/>
	<stop  offset="0.6185" style="stop-color:#E16A27"/>
	<stop  offset="0.8364" style="stop-color:#F77E1E"/>
	<stop  offset="0.9775" style="stop-color:#FF851B"/>
</linearGradient>
<rect x="26.832" y="124.734" style="fill:url(#SVGID_1_);" width="22" height="22"/>
<text transform="matrix(1 0 0 1 54.6641 146.7344)" style="fill:#231F20; font-family:'Helvetica'; font-size:13;">Age increase in pie chart</text>
<text transform="matrix(1 0 0 1 26.832 171.5264)" style="font-family:'Helvetica'; font-size:13;" id="legend-barsize-text">Every bar represents 1 year</text>

</svg>
